<svg xmlns="http://www.w3.org/2000/svg" height="1227" width="1627" version="1.1" xmlns:xlink="http://www.w3.org/1999/xlink" xmlns:svgjs="http://svgjs.com/svgjs"><rect fill="#f5f5f5" width="1627" height="1227"></rect><g><path d="M362.69 448.47H658.93C693.57 448.47 721.65 476.54 721.65 511.18V805.89C721.65 840.53 693.57 868.6 658.93 868.6H362.69C328.05 868.6 299.98 840.53 299.98 805.89V511.18C299.98 476.54 328.05 448.47 362.69 448.47Z" fill="#ff9edd" opacity="1" stroke-width="4" stroke="none"></path><path d="M404.17 504.34L355.99 552.52" stroke="#000000" stroke-width="4" stroke-linecap="round" stroke-linejoin="round" opacity="1" fill="none"></path><path d="M404.17 552.52L355.99 504.34" stroke="#000000" stroke-width="4" stroke-linecap="round" stroke-linejoin="round" opacity="1" fill="none"></path></g><g><path d="M1265.68 348.11L957.98 348.11C922 348.11 892.84 377.27 892.84 413.24V719.35C892.84 755.33 922 784.49 957.98 784.49H1265.68C1301.66 784.49 1330.82 755.33 1330.82 719.35V413.24C1330.82 377.27 1301.66 348.11 1265.68 348.11Z" fill="#2c71f6fa" opacity="1" stroke-width="4" stroke="none"></path><path d="M1222.59 406.14L1272.64 456.19" stroke="#000000fa" stroke-width="4" stroke-linecap="round" stroke-linejoin="round" opacity="1" fill="none"></path><path d="M1222.59 456.19L1272.64 406.14" stroke="#000000fa" stroke-width="4" stroke-linecap="round" stroke-linejoin="round" opacity="1" fill="none"></path></g><g><path d="M660.6 738.56L660.38 737.98C673.98 715.23 685.17 699.37 693.68 691.81 702.41 684.11 710.4 682.07 718.84 680.4L719.2 680.25C721.02 679.89 722.69 679.38 724.73 678.94L726.55 678.58C730.91 677.42 736.07 674.58 741.09 671.89L741.6 671.53C748.14 668.04 754.18 664.84 758.54 664.84 760.21 664.84 761.52 665.2 762.25 666.15 763.12 667.02 763.41 667.96 763.41 669.13 763.26 675.67 750.98 686.72 748.65 688.76 751.63 689.12 754.54 689.41 757.37 689.41 764.06 689.41 768.94 688.25 775.84 686.43L776.72 686.29C780.93 685.12 785.59 683.96 791.48 682.94 795.18 682.29 798.82 681.92 802.16 681.92 807.84 681.92 811.91 683.09 813.36 685.41 818.52 685.92 822.09 687.45 823.25 689.78 823.9 690.94 824.27 693.12 822.38 695.96 823.54 697.77 823.9 699.67 823.39 701.63 821.36 708.32 808.13 714.35 794.24 720.9L785 725.26C766.1 734.27 738.25 738.35 730.18 739.51H730.04C727.71 750.2 724.15 761.83 720.8 772.01L720.66 772.16 660.6 738.56Z" fill="#c79260" opacity="1" stroke-width="4" stroke="none"></path><path d="M461.09 679.89V679.74C460.94 676.25 460.72 671.53 460.43 666 460.29 662.8 460.07 659.46 459.92 655.75L459.56 648.55C458.39 624.27 456.72 593.95 457.01 581.66 457.16 570.1 472.72 569.44 481.3 560.86 490.17 552.14 492.86 551.77 505.73 551.77 530.52 551.77 548.34 550.83 559.39 561.59 565.79 570.97 566.22 587.55 566.73 599.62 566.88 605 567.24 611.03 567.89 615.18 570.22 628.26 571.38 641.79 563.9 652.55 557.5 661.42 547.46 663.24 540.12 663.24 537.94 663.24 535.9 663.09 534.45 662.87L535.61 681.12 549.72 735.15 440.36 729.11 461.09 679.89Z" fill="#c79260" opacity="1" stroke-width="4" stroke="none"></path><path d="M517.57 656.62C523.17 659.09 532.33 662.22 534.15 662.8 534.37 662.87 534.44 663.02 534.51 663.24L535.17 673.56C535.17 674 534.66 674.22 534.37 673.93L517.06 657.42C516.7 657.06 517.06 656.4 517.57 656.62Z" fill="#000000" opacity="0.2" stroke-width="4" stroke="none"></path><path d="M558.73 607.32C557.06 607.32 555.68 605.94 555.68 604.27 555.68 602.6 557.06 601.22 558.73 601.22 560.41 601.22 561.79 602.6 561.79 604.27 561.79 605.94 560.41 607.32 558.73 607.32Z" fill="#30242a" opacity="1" stroke-width="4" stroke="none"></path><path d="M534.44 608.49C532.77 608.49 531.39 607.11 531.39 605.43 531.39 603.76 532.77 602.38 534.44 602.38 536.11 602.38 537.5 603.76 537.5 605.43 537.5 607.11 536.19 608.49 534.44 608.49Z" fill="#30242a" opacity="1" stroke-width="4" stroke="none"></path><path d="M534.45 662.87C529.94 661.2 524.85 659.46 519.98 657.64" stroke="#000000" stroke-width="4" stroke-linecap="round" stroke-linejoin="round" opacity="1" fill="none"></path><path d="M493.44 615.03L503.18 621.87" stroke="#000000" stroke-width="4" stroke-linecap="round" stroke-linejoin="round" opacity="1" fill="none"></path><path d="M549.72 631.1C545.5 632.12 541.36 629.94 539.32 626.23" stroke="#000000" stroke-width="4" stroke-linecap="round" stroke-linejoin="round" opacity="1" fill="none"></path><path d="M549.72 609.51C551.03 613 552.04 615.54 548.55 617.07" stroke="#000000" stroke-width="4" stroke-linecap="round" stroke-linejoin="round" opacity="1" fill="none"></path><path d="M822.01 696.76C810.09 695.74 784.64 707.66 762.03 710.5 762.03 710.5 718.77 696.76 702.04 710.5" stroke="#000000" stroke-width="4" stroke-linecap="round" stroke-linejoin="round" opacity="1" fill="none"></path><path d="M812.12 685.92C807.25 685.92 771.76 695.81 761.88 696.83" stroke="#000000" stroke-width="4" stroke-linecap="round" stroke-linejoin="round" opacity="1" fill="none"></path><path d="M660.6 737.33C652.38 751.07 646.71 762.27 644.75 766.49 644.24 765.61 631.66 744.38 611.88 723.22 593.42 703.3 566.51 679.67 535.54 679.52 535.54 679.52 535.54 696.61 504.35 696.39 473.15 696.18 461.09 679.52 461.09 679.52 403.94 683.96 384.81 722.57 384.67 722.93 384.67 723.08 369.76 751.73 359.87 784.44 343.3 839.05 352.53 863.04 363.22 873.44 374.27 884.13 391.72 889.51 415.35 889.51 432.58 889.51 453.89 886.31 476.64 880.49L477.01 880.35 475.63 862.24H561.79L568.19 797.39C575.02 807.27 586.44 821.53 600.83 833.09 616.9 846.17 632.82 852.86 647.73 852.86H648.75C669.03 852.5 698.04 838.83 721.02 771.65L721.31 770.77 660.6 737.33Z" fill="#2c71f6fa" opacity="1" stroke-width="4" stroke="none"></path><path d="M568.25 797.53C572.32 803.42 578.07 810.84 584.97 818.33 585.34 818.69 585.99 818.33 585.77 817.82 583.23 811.27 575.96 792.01 571.01 774.77 570.87 774.26 570.14 774.34 570.07 774.85L568.11 797.24C568.18 797.31 568.18 797.46 568.25 797.53Z" fill="#000000fa" opacity="0.2" stroke-width="4" stroke="none"></path><path d="M568.19 797.39L570.66 770.99" stroke="#000000fa" stroke-width="4" stroke-linecap="round" stroke-linejoin="round" opacity="1" fill="none"></path><path d="M565.64 911.18C558.59 911.18 538.81 889.73 532.99 883.18L532.85 883.04C532.34 883.04 531.83 883.04 531.54 883.18 531.03 883.18 530.52 883.18 530.01 883.18 518.6 883.18 507.55 879.98 497.66 873.95 496.79 874.31 489.66 876.93 476.64 880.49L474.46 881.07 469.37 816H469.52C487.26 817.02 513.07 818.98 532.85 823.56 549.79 827.56 566 834.76 579.46 844.5 589.85 852.06 598.36 860.79 602.21 868.13 606.43 875.84 605.56 880.71 604.03 883.4 603.38 884.56 602.72 885.22 602.36 885.44 603.01 888.93 602.5 891.98 601.05 893.8 598.87 896.34 595.67 896.78 594.51 896.78H594.36C592.69 901 589.63 902.96 585.34 902.96 578.29 902.96 569.57 897.58 566.22 895.4 567.09 897.22 571.09 906.3 568.77 909.94 568.19 910.67 567.17 911.18 565.64 911.18Z" fill="#c79260" opacity="1" stroke-width="4" stroke="none"></path><path d="M566.22 895.4L549.43 876.42" stroke="#000000" stroke-width="4" stroke-linecap="round" stroke-linejoin="round" opacity="1" fill="none"></path><path d="M594.36 896.78C594.36 896.78 571.82 872.42 558.59 862.17" stroke="#000000" stroke-width="4" stroke-linecap="round" stroke-linejoin="round" opacity="1" fill="none"></path><path d="M602.36 885.44C595.16 876.2 577.06 856.94 567.31 849.96" stroke="#000000" stroke-width="4" stroke-linecap="round" stroke-linejoin="round" opacity="1" fill="none"></path><path d="M644.75 766.49L647.29 785.68" stroke="#000000fa" stroke-width="4" stroke-linecap="round" stroke-linejoin="round" opacity="1" fill="none"></path><path d="M619.74 732.02C617.26 729.11 614.65 726.2 611.96 723.3 593.49 703.37 566.59 679.74 535.61 679.6 535.61 679.6 535.61 696.68 504.42 696.47 473.23 696.25 461.16 679.6 461.16 679.6 404.01 684.03 384.89 722.64 384.74 723.01 384.74 723.15 377.4 737.33 369.54 757.11 392.37 761.25 411.13 742.35 411.13 742.35 411.13 742.35 420.88 769.1 449.67 771.21 483.19 773.76 496.42 740.82 496.42 740.82 496.42 740.82 510.6 771.07 542.74 768.23 575.09 765.39 568.91 726.06 568.91 726.06 568.91 726.06 597.41 748.53 619.74 732.02Z" fill="#febe34" opacity="1" stroke-width="4" stroke="none"></path><path d="M535.54 679.52C535.54 679.52 535.54 696.61 504.35 696.39 473.15 696.18 461.09 679.52 461.09 679.52" stroke="#292827" stroke-width="4" stroke-linecap="round" stroke-linejoin="round" opacity="1" fill="none"></path><path d="M308.03 735.22C306.51 709.04 324.17 681.56 359.07 675.38 359.87 600.85 435.49 598.38 457.16 609.8 456.8 598.89 456.36 588.64 456.36 581.59 456.5 570.02 462.03 558.68 470.54 550.18 479.41 541.45 491.33 536.8 504.2 536.8 529 536.8 548.84 545.3 559.46 561.23 561.93 565.23 562.95 567.92 563.82 571.77 563.82 571.77 563.9 572.21 563.24 572.5 560.55 573.81 552.84 576.86 539.97 576.86 531.61 576.86 522.89 575.7 513.8 573.15 518.16 583.69 515.84 602.67 511.76 606.31L511.62 606.45 511.47 606.31C511.33 606.16 500.28 599.62 490.53 599.62 484.86 599.62 480.79 601.8 478.46 606.45 471.63 620.34 489.88 636.48 493.73 639.46 493.88 639.61 493.88 639.61 493.88 639.61L494.02 639.75V639.9C508.56 721.48 433.67 750.42 384.96 723.37 384.3 724.46 369.47 753.76 358.86 787.72 358.86 787.79 310.8 782.34 308.03 735.22Z" fill="#30242a" opacity="1" stroke-width="4" stroke="none"></path><path d="M449.31 775.43C454.03 777.97 457.16 782.7 457.67 788.01L460.14 814.4 431.35 813.96 449.31 775.43Z" fill="#000000fa" opacity="0.2" stroke-width="4" stroke="none"></path><path d="M445.01 784.23L431.78 813.6" stroke="#000000fa" stroke-width="4" stroke-linecap="round" stroke-linejoin="round" opacity="1" fill="none"></path><path d="M469.37 816C445.74 814.98 417.17 813.89 417.17 813.89" stroke="#000000fa" stroke-width="4" stroke-linecap="round" stroke-linejoin="round" opacity="1" fill="none"></path><path d="M457.16 609.8L457.96 626.16" stroke="#191416" stroke-width="4" stroke-linecap="round" stroke-linejoin="round" opacity="1" fill="none"></path><path d="M359.07 675.38C370.41 673.64 379.13 676.47 379.13 676.47" stroke="#191416" stroke-width="4" stroke-linecap="round" stroke-linejoin="round" opacity="1" fill="none"></path><path d="M384.96 723.37C379.21 720.1 374.27 714.06 374.27 714.06" stroke="#191416" stroke-width="4" stroke-linecap="round" stroke-linejoin="round" opacity="1" fill="none"></path></g><g><path d="M901.22 636.53C887.04 611.35 876.32 605.5 851.05 595.93 841.83 592.38 835.19 589.73 835.19 586.53 835.19 584.5 837.76 583.43 842.9 583.43 849.28 583.43 857.52 585.12 857.88 585.2 857.43 585.12 842.37 579.18 833.24 572.71 827.12 568.63 827.92 563.4 831.91 560.65 828.98 556.84 827.83 550.46 836.69 548.68 833.86 544.43 836.69 539.2 841.83 539.38 845.38 539.46 846.89 540.71 851.14 542.04 860.98 545.67 879.33 552.32 886.42 552.32 897.5 552.41 875.07 533.88 883.94 528.65 893.51 527.14 905.66 535.56 958.31 596.64 958.31 596.64 944.93 607.9 930.65 617.83 916.29 627.75 901.22 636.53 901.22 636.53Z" fill="#936343" opacity="1" stroke-width="4" stroke="none"></path><path d="M1105.19 548.51C1061.76 555.07 1056.17 527.76 1068.76 495.68 1068.76 495.59 1068.76 495.5 1068.67 495.41 1067.78 494.61 1062.29 489.2 1063.62 484.77 1064.86 480.69 1074.88 480.61 1074.7 480.16 1076.38 473.34 1086.22 438.86 1110.24 430.35 1115.03 428.4 1120.62 432.03 1127.09 432.03 1134.53 432.03 1144.73 430.97 1156.52 437.53 1185.06 453.3 1180.54 482.73 1178.68 503.83 1178.06 511.45 1182.31 540.35 1180.27 558.43 1180.27 558.52 1180.18 558.61 1180.01 558.7L1121.86 564.37H1121.77L1104.66 558.79C1104.57 558.79 1104.48 558.61 1104.48 558.52L1105.37 548.86C1105.55 548.6 1105.37 548.42 1105.19 548.51Z" fill="#936343" opacity="1" stroke-width="4" stroke="none"></path><path d="M1198.44 784.03L1081.7 783.59C1081.61 783.59 1081.7 783.68 1081.7 783.59L1062.55 692.91C1062.55 692.73 1062.29 692.64 1062.11 692.73 1058.39 696.1 1021.96 727.74 988.18 727.74 945.99 728.19 920.02 666.31 901.31 636.62 901.22 636.53 901.22 636.35 901.4 636.26 904.86 633.87 954.68 599.03 958.13 596.64 958.22 596.55 958.4 596.55 958.49 596.73 976.57 618.53 991.91 638.39 993.68 640.78 993.77 640.87 993.94 640.87 994.03 640.78 1023.64 608.07 1051.3 567.21 1103.24 570.49 1103.42 570.49 1103.51 570.4 1103.51 570.31 1103.68 568.81 1104.39 560.21 1104.57 558.7 1104.57 558.61 1104.66 558.43 1104.84 558.43L1180.09 558.35C1180.27 558.35 1180.36 558.43 1180.36 558.61 1179.74 564.2 1179.12 570.05 1178.76 571.46 1178.76 571.55 1178.76 571.73 1178.94 571.73 1193.92 577.94 1215.73 593.18 1228.49 616.05 1249.32 653.55 1299.58 779.42 1212.27 784.12L1198.44 784.03C1198.53 784.03 1198.35 783.94 1198.44 784.03Z" fill="#febe34" opacity="1" stroke-width="4" stroke="none"></path><path d="M1081.7 783.59L1062.55 692.64C1062.55 692.55 1062.55 692.46 1062.64 692.37 1064.15 690.96 1081.7 675.35 1086.84 669.95 1087.02 669.77 1087.29 669.86 1087.29 670.12L1097.48 783.59H1081.7C1081.7 783.76 1081.52 783.59 1081.7 783.59Z" fill="#353129" opacity="0.2" stroke-width="4" stroke="none"></path><path d="M1196.32 763.2L1206.78 708.24C1206.86 707.97 1207.22 707.97 1207.31 708.24 1208.64 723.93 1213.16 745.38 1226.54 761.69 1234.34 771.18 1239.4 773.93 1242.14 774.9 1242.32 774.99 1242.32 775.08 1242.14 775.17 1229.47 783.94 1213.87 784.21 1212.36 784.3L1191.71 783.94C1191.62 783.85 1196.32 763.29 1196.32 763.2Z" fill="#353129" opacity="0.2" stroke-width="4" stroke="none"></path><path d="M1105.72 548.42C1106.79 548.15 1112.81 546.73 1119.2 544.96 1119.46 544.87 1119.64 545.23 1119.37 545.4L1105.1 556.48C1104.93 556.66 1104.66 556.48 1104.66 556.22L1105.37 548.6C1105.55 548.51 1105.63 548.42 1105.72 548.42Z" fill="#000000" opacity="0.2" stroke-width="4" stroke="none"></path><path d="M969.66 610.38C980.91 624.12 987.47 632.98 993.86 640.96 993.94 641.05 993.94 641.23 993.86 641.32L985.26 651.42C984.73 652.04 984.55 651.95 984.46 651.78L969.3 610.65C969.12 610.38 969.48 610.2 969.66 610.38Z" fill="#353129" opacity="0.2" stroke-width="4" stroke="none"></path><path d="M1256.15 668C1237 668.44 1217.24 650.27 1219.54 630.5L1218.92 630.59C1199.86 632.27 1179.47 628.46 1167.06 598.59 1167.06 598.5 1166.98 598.5 1166.89 598.41 1121.32 588.31 1122.83 544.69 1130.72 523.15 1130.72 523.07 1130.81 523.07 1130.9 522.98 1132.32 522.45 1148.45 515.8 1153.15 504.27 1157.14 494.52 1151.37 481.32 1138.79 482.11 1129.12 482.11 1118.13 487.52 1116.63 488.32 1116.54 488.41 1116.36 488.32 1116.36 488.23 1115.56 487.34 1111.31 483.27 1108.21 480.43 1108.12 480.34 1108.12 480.25 1108.12 480.16L1116.8 460.4C1116.89 460.13 1116.63 459.95 1116.45 460.04L1098.28 471.12C1098.19 471.21 1098.1 471.21 1098.01 471.12 1090.92 464.83 1084.27 458.8 1083.21 457.91 1083.12 457.82 1083.12 457.74 1083.12 457.65 1088.17 447.54 1097.04 434.69 1110.42 429.9 1125.31 425.03 1140.83 425.91 1158.55 434.96 1188.07 451.53 1187.9 481.67 1185.86 503.92 1185.68 505.78 1185.5 508.26 1185.24 511.19 1185.24 511.37 1185.41 511.54 1185.59 511.45 1207.13 502.06 1239.04 511.01 1252.43 528.92 1279.37 562.87 1258.81 599.56 1256.59 603.29 1256.5 603.47 1256.59 603.64 1256.77 603.64 1284.96 608.87 1297.99 637.59 1279.02 658.16 1272.73 664.72 1264.84 668 1256.15 668Z" fill="#231f20" opacity="1" stroke-width="4" stroke="none"></path><path d="M1205 728.27L1211.12 730.31" stroke="#353129" stroke-width="4" stroke-linecap="round" stroke-linejoin="round" opacity="1" fill="none"></path><path d="M1062.47 692.55L1086.84 670.04" stroke="#353129" stroke-width="4" stroke-linecap="round" stroke-linejoin="round" opacity="1" fill="none"></path><path d="M1076.38 513.23C1079.93 513.58 1083.47 512.07 1085.69 509.24" stroke="#000000" stroke-width="4" stroke-linecap="round" stroke-linejoin="round" opacity="1" fill="none"></path><path d="M1105.72 548.42C1110.07 547.62 1114.85 546.47 1119.2 544.96" stroke="#000000" stroke-width="4" stroke-linecap="round" stroke-linejoin="round" opacity="1" fill="none"></path><path d="M1103.51 570.67C1103.51 570.67 1099.07 570.49 1095.88 570.49" stroke="#353129" stroke-width="4" stroke-linecap="round" stroke-linejoin="round" opacity="1" fill="none"></path><path d="M1126.73 504.01L1135.77 499.84" stroke="#000000" stroke-width="4" stroke-linecap="round" stroke-linejoin="round" opacity="1" fill="none"></path><path d="M1088.35 487.25C1090.21 487.25 1091.72 485.75 1091.72 483.89 1091.72 482.02 1090.21 480.52 1088.35 480.52 1086.49 480.52 1084.98 482.02 1084.98 483.89 1084.98 485.75 1086.49 487.25 1088.35 487.25Z" fill="#231f20" opacity="1" stroke-width="4" stroke="none"></path><path d="M916.91 663.39L977.55 620.13" stroke="#353129" stroke-width="4" stroke-linecap="round" stroke-linejoin="round" opacity="1" fill="none"></path><path d="M993.86 641.14C989.87 645.84 984.9 651.86 984.9 651.86" stroke="#353129" stroke-width="4" stroke-linecap="round" stroke-linejoin="round" opacity="1" fill="none"></path><path d="M836.69 548.68C846 553.38 872.24 565.08 872.24 565.08" stroke="#000000" stroke-width="4" stroke-linecap="round" stroke-linejoin="round" opacity="1" fill="none"></path><path d="M831.91 560.65L868.25 576.34" stroke="#000000" stroke-width="4" stroke-linecap="round" stroke-linejoin="round" opacity="1" fill="none"></path><path d="M857.88 585.2L867.36 589.37" stroke="#000000" stroke-width="4" stroke-linecap="round" stroke-linejoin="round" opacity="1" fill="none"></path><path d="M1191.88 782.79L1206.78 708.24" stroke="#353129" stroke-width="4" stroke-linecap="round" stroke-linejoin="round" opacity="1" fill="none"></path><path d="M1131.25 533.79C1136.54 533.79 1140.83 529.5 1140.83 524.22 1140.83 518.93 1136.54 514.64 1131.25 514.64 1125.96 514.64 1121.68 518.93 1121.68 524.22 1121.68 529.5 1125.96 533.79 1131.25 533.79Z" fill="#ff9edd" opacity="1" stroke-width="4" stroke="none"></path></g><g><path d="M812.94 867.71L919.06 971.29 841.83 1021.47 812.94 867.71Z" fill="#000000" opacity="0.2" stroke-width="4" stroke="none"></path><path d="M812.94 867.71L952.07 978.98 874.83 1029.16 812.94 867.71Z" fill="#61ccff" opacity="1" stroke-width="4" stroke="none"></path></g><g><path d="M219.72 694.24C235.85 694.24 248.93 681.16 248.93 665.03 248.93 648.9 235.85 635.82 219.72 635.82 203.59 635.82 190.51 648.9 190.51 665.03 190.51 681.16 203.59 694.24 219.72 694.24Z" fill="#61ccff" opacity="1" stroke-width="4" stroke="none"></path></g><g><path d="M1391.22 521.5L1372.95 547.24 1400.99 532.19 1414.36 563 1417.24 530.66 1444.15 542.62 1423.98 518.71 1452.92 499.03 1419.69 504.3 1420.24 467.09 1404.67 501.85 1381.56 481.62 1392.1 509.21 1359.4 515.12 1391.22 521.5Z" fill="#ff9edd" opacity="1" stroke-width="4" stroke="none"></path></g><g><path d="M173.9 425.25L164.58 479.63 267.14 428.28 252.01 552.21 316.77 473.9 376.04 554.44" stroke="#1f2320" stroke-width="4" stroke-linecap="round" stroke-linejoin="round" opacity="1" fill="none"></path></g></svg>