<svg xmlns="http://www.w3.org/2000/svg" height="1200" width="1600" version="1.1" xmlns:xlink="http://www.w3.org/1999/xlink" xmlns:svgjs="http://svgjs.com/svgjs"><rect fill="#f3ebe9" width="1600" height="1200"></rect><g><path d="M256.41 823.51C243.4 823.51 232.83 835.23 232.83 849.67V867.99C232.83 874.37 228.17 879.5 222.46 879.5H213.97V766.46C213.97 752.02 203.41 740.3 190.39 740.3 177.38 740.3 166.82 752.02 166.82 766.46V848.1H158.33C152.57 848.1 147.95 842.92 147.95 836.59V813.04C147.95 798.6 137.39 786.87 124.37 786.87 111.36 786.87 100.8 798.6 100.8 813.04V859.72C100.8 882.22 117.21 900.43 137.48 900.43H166.82V1034.4H213.97V931.83H243.3C263.58 931.83 279.99 913.62 279.99 891.12V849.67C279.99 835.23 269.43 823.51 256.41 823.51Z" fill="#ffa0dc" opacity="1" stroke-width="4" stroke="none"></path><path d="M206.8 748.15V1033.88" stroke="#c0bebf" stroke-width="4" stroke-linecap="round" stroke-linejoin="round" opacity="1" fill="none"></path><path d="M223.21 879.5V931.83" stroke="#c0bebf" stroke-width="4" stroke-linecap="round" stroke-linejoin="round" opacity="1" fill="none"></path><path d="M239.63 831.88V931.83" stroke="#c0bebf" stroke-width="4" stroke-linecap="round" stroke-linejoin="round" opacity="1" fill="none"></path><path d="M256.04 823.51V929.21" stroke="#c0bebf" stroke-width="4" stroke-linecap="round" stroke-linejoin="round" opacity="1" fill="none"></path><path d="M272.35 830.1L272.45 915.61" stroke="#c0bebf" stroke-width="4" stroke-linecap="round" stroke-linejoin="round" opacity="1" fill="none"></path><path d="M173.98 748.15V1033.88" stroke="#c0bebf" stroke-width="4" stroke-linecap="round" stroke-linejoin="round" opacity="1" fill="none"></path><path d="M190.39 740.3V1033.88" stroke="#c0bebf" stroke-width="4" stroke-linecap="round" stroke-linejoin="round" opacity="1" fill="none"></path><path d="M124.75 786.87V898.39" stroke="#c0bebf" stroke-width="4" stroke-linecap="round" stroke-linejoin="round" opacity="1" fill="none"></path><path d="M141.21 794.98L141.16 899.91" stroke="#c0bebf" stroke-width="4" stroke-linecap="round" stroke-linejoin="round" opacity="1" fill="none"></path><path d="M157.57 848.1V899.91" stroke="#c0bebf" stroke-width="4" stroke-linecap="round" stroke-linejoin="round" opacity="1" fill="none"></path><path d="M108.34 794.2V883.69" stroke="#c0bebf" stroke-width="4" stroke-linecap="round" stroke-linejoin="round" opacity="1" fill="none"></path><path d="M166.82 900.43V1034.4H180.49V915.61C180.49 907.24 174.36 900.43 166.82 900.43Z" fill="#c0bebf" opacity="0.3" stroke-width="4" stroke="none"></path><path d="M166.82 766.46V848.1C174.36 848.1 180.49 841.3 180.49 832.92V742.71C172.43 746.84 166.82 755.95 166.82 766.46Z" fill="#c0bebf" opacity="0.3" stroke-width="4" stroke="none"></path><path d="M232.83 849.67V867.99C232.83 874.37 228.17 879.5 222.46 879.5H235.95C242.64 879.5 248.07 873.48 248.07 866.05V825.23C239.15 828.95 232.83 838.47 232.83 849.67Z" fill="#c0bebf" opacity="0.3" stroke-width="4" stroke="none"></path><path d="M100.8 813.04V859.72C100.8 872.8 106.36 884.42 114.94 891.85V789.02C106.64 793.05 100.8 802.31 100.8 813.04Z" fill="#c0bebf" opacity="0.3" stroke-width="4" stroke="none"></path><path d="M213.97 931.83H198.88" stroke="#888888" stroke-width="4" stroke-linecap="round" stroke-linejoin="round" opacity="1" fill="none"></path><path d="M166.82 848.1H183.46" stroke="#888888" stroke-width="4" stroke-linecap="round" stroke-linejoin="round" opacity="1" fill="none"></path></g><g><path d="M1217.24 671.67C1210.31 663.89 1198.48 657.22 1186.16 650.43 1185.98 650.46 1185.89 644.04 1184.46 640.49 1184.12 639.39 1183.36 638.46 1182.35 637.96 1181.67 637.7 1180.91 637.54 1179.98 637.54 1175.59 637.54 1169.33 640.91 1169.33 640.74 1154.55 633.14 1145 628.41 1136.55 628.41 1132.5 628.41 1128.7 629.51 1125.07 631.87 1121.85 633.9 1118.31 637.79 1115.77 642.01 1109.1 653.76 1109.86 671.41 1109.86 671.58 1100.9 671.58 1087.89 663.56 1072.85 654.35 1053.25 642.35 1031.12 628.75 1008.48 625.96 997.66 624.61 985.24 623.93 971.47 623.93 968.09 623.93 964.55 624.02 961 624.1L977.22 765.02 1031.29 782.51C1030.95 785.04 1030.7 787.58 1030.53 790.03 1028.16 818.75 1025.54 859.22 1026.98 889.55 1029.43 943.87 1042.86 1002.17 1043.03 1002.76 1042.78 1002.76 1020.22 1005.89 1008.39 1007.83 998.09 1009.52 985.5 1013.74 981.36 1015.43 968.85 1020.42 967 1024.73 967 1024.73 961.25 1026.16 959.05 1030.22 959.48 1033.6 959.73 1035.79 961.08 1037.4 962.77 1037.4L1043.03 1037.31C1042.86 1037.48 1023.52 1053.03 1023.85 1060.21 1023.94 1061.31 1024.36 1062.15 1025.29 1062.74 1026.47 1063.5 1028.08 1063.84 1030.19 1063.84 1045.99 1063.84 1084.17 1044.07 1091.19 1039 1101.58 1031.74 1103.86 1021.77 1104.7 1004.62 1105.04 996.42 1104.45 984.51 1103.69 970.66 1102.25 942.94 1100.23 904.93 1104.7 866.82 1105.97 856.1 1107.49 845.28 1109.01 834.89 1113.66 801.86 1118.14 770.18 1113.15 745.84 1129.46 752.52 1142.64 750.49 1161.06 754.46 1163.59 754.88 1170.6 757.25 1173.05 757.25 1190.96 757.25 1202.54 747.87 1211.07 729.79 1229.4 690.93 1221.46 676.65 1217.24 671.67Z" fill="#edc296" opacity="1" stroke-width="4" stroke="none"></path><path d="M1218.84 871.81C1248.23 871.81 1272.07 847.98 1272.07 818.58 1272.07 789.19 1248.23 765.36 1218.84 765.36 1189.45 765.36 1165.62 789.19 1165.62 818.58 1165.62 847.98 1189.45 871.81 1218.84 871.81Z" fill="#231f20" opacity="1" stroke-width="4" stroke="none"></path><path d="M1186.91 783.61C1177.7 783.61 1170.52 779.64 1168.15 773.22 1166.38 768.57 1167.31 763.25 1170.77 758.26 1174.23 753.19 1179.73 749.14 1186.32 746.6 1190.37 745.08 1194.68 744.24 1198.74 744.24 1207.94 744.24 1215.12 748.21 1217.49 754.63 1221.12 764.18 1212.93 776.17 1199.33 781.24 1195.27 782.85 1190.96 783.61 1186.91 783.61Z" fill="#ffa0dc" opacity="1" stroke-width="4" stroke="none"></path><path d="M1098.45 668.71C1103.01 670.57 1106.56 671.5 1109.86 671.58 1110.36 677.83 1111.21 684.09 1112.39 690.17H1112.31L1098.45 668.71Z" fill="#7d5730" opacity="0.3" stroke-width="4" stroke="none"></path><path d="M1001.3 772.79C1001.46 772.63 1015.4 764.51 1031.29 764.51 1031.29 764.51 1030.36 781.83 1030.27 782H1029.94L1001.3 772.79Z" fill="#7d5730" opacity="0.3" stroke-width="4" stroke="none"></path><path d="M1217.24 671.74C1214.96 669.29 1212.51 667.01 1209.8 664.98 1209.8 664.98 1204.56 670.05 1203.88 691.99 1204.56 692.86 1184.29 676.81 1182.99 702.52 1183.84 703.24 1159.79 697.09 1160.4 697.43 1160.73 698.49 1167.39 726.66 1147.96 730.88 1128.53 735.11 1120.08 705.54 1119.78 705.82 1087.98 704.14 1092.54 736.88 1093.21 736.44 1112.31 746.09 1139.6 757.24 1166.55 762.99 1189.36 766.37 1206.51 754.28 1215.55 735.11 1229.91 704.69 1226.53 682.73 1217.24 671.74Z" fill="#231f20" opacity="1" stroke-width="4" stroke="none"></path><path d="M336.15 1037.4C332.44 1037.4 329.31 1035.03 328.21 1031.48 326.61 1025.91 332.01 1021.77 342.66 1013.49 346.63 1010.45 351.11 1006.98 356.26 1002.68 361.5 998.28 368.17 992.62 375.27 986.71 387.77 976.15 401.88 964.23 413.71 954.52 429.59 941.51 448.26 925.03 469.13 905.6L526.07 973.44C512.56 980.46 499.21 986.54 486.37 991.69L486.62 993.55C488.39 1005.46 491.01 1023.46 481.72 1033.51 479.44 1035.96 476.31 1037.31 473.02 1037.31L336.15 1037.4Z" fill="#edc296" opacity="1" stroke-width="4" stroke="none"></path><path d="M488.31 1009.1C488.31 1009.1 487.63 1007.49 485.77 1005.13 484.09 1002.93 481.04 999.55 476.23 996.09L486.45 991.86C487.3 997.52 488.14 1003.35 488.31 1009.1Z" fill="#7d5730" opacity="0.3" stroke-width="4" stroke="none"></path><path d="M469.13 905.69C499.29 877.55 534.78 842.49 564.09 811.83 621.96 751.34 684.73 699.46 727.99 676.65 767.02 656.04 816.61 640.58 871.44 631.87H871.61C886.9 629.42 908.7 627.99 910.9 627.82L910.39 743.39 891.89 737.48C891.8 737.82 879.64 771.36 838.66 782.26 821.51 786.82 803.86 790.96 786.79 794.93 741.85 805.41 699.35 815.37 678.99 830.41 667.67 838.86 658.71 852.04 648.41 867.42 631.93 891.92 611.4 922.42 570.85 947.85L569.75 948.52C564.34 951.9 547.95 962.29 525.99 973.61L469.13 905.69Z" fill="#141210" opacity="1" stroke-width="4" stroke="none"></path><path d="M1033.4 659.92C1030.02 645.05 1034.67 633.56 1034.67 633.48 1025.2 629.42 1016.59 626.97 1008.48 625.96 997.66 624.61 985.24 623.93 971.47 623.93 968.09 623.93 964.55 623.93 961 624.02 945.87 624.36 919.6 626.64 908.96 627.65V742.97L977.22 765.02C977.22 765.02 980.51 750.32 992.76 736.04 1004.08 722.86 1025.54 707.07 1063.81 707.07 1068.46 707.07 1091.27 711.54 1096.59 712.64 1096.76 712.64 1096.85 712.47 1096.68 712.39 1077.92 703.86 1038.89 684.34 1033.4 659.92Z" fill="#2c71f6fa" opacity="1" stroke-width="4" stroke="none"></path><path d="M891.89 737.48C893.49 730.81 896.03 723.88 896.96 717.2" stroke="#000000" stroke-width="4" stroke-linecap="round" stroke-linejoin="round" opacity="1" fill="none"></path><path d="M504.11 947C571.69 898 615.54 831 648.58 801.69 681.61 772.37 786.28 682.57 908.79 679.61" stroke="#000000" stroke-width="4" stroke-linecap="round" stroke-linejoin="round" opacity="1" fill="none"></path><path d="M1109.86 671.58C1109.94 677.07 1110.28 682.57 1112.39 687.63" stroke="#674828" stroke-width="4" stroke-linecap="round" stroke-linejoin="round" opacity="1" fill="none"></path><path d="M1179.98 663.98C1176.6 666.51 1175.76 669.05 1175.76 673.27" stroke="#674828" stroke-width="4" stroke-linecap="round" stroke-linejoin="round" opacity="1" fill="none"></path><path d="M1155.48 647.93C1153.79 650.46 1153.79 655.53 1156.32 658.06" stroke="#674828" stroke-width="4" stroke-linecap="round" stroke-linejoin="round" opacity="1" fill="none"></path><path d="M1139.43 700.31L1142.81 711.29" stroke="#674828" stroke-width="4" stroke-linecap="round" stroke-linejoin="round" opacity="1" fill="none"></path><path d="M1031.46 782L1033.15 764.85" stroke="#674828" stroke-width="4" stroke-linecap="round" stroke-linejoin="round" opacity="1" fill="none"></path><path d="M347.81 1026.42C344.86 1028.95 343.33 1032.67 343.59 1036.55" stroke="#674828" stroke-width="4" stroke-linecap="round" stroke-linejoin="round" opacity="1" fill="none"></path><path d="M358.8 1026.42C355.84 1028.95 354.32 1032.67 354.57 1036.55" stroke="#674828" stroke-width="4" stroke-linecap="round" stroke-linejoin="round" opacity="1" fill="none"></path><path d="M486.37 991.69L476.23 995.49" stroke="#674828" stroke-width="4" stroke-linecap="round" stroke-linejoin="round" opacity="1" fill="none"></path><path d="M908.79 627.65V741.7" stroke="#000000fa" stroke-width="4" stroke-linecap="round" stroke-linejoin="round" opacity="1" fill="none"></path><path d="M1043.03 1037.31L1051.23 1031.4" stroke="#674828" stroke-width="4" stroke-linecap="round" stroke-linejoin="round" opacity="1" fill="none"></path><path d="M968.01 1024.64C982.79 1023.2 1014.22 1019.07 1014.39 1018.81" stroke="#674828" stroke-width="4" stroke-linecap="round" stroke-linejoin="round" opacity="1" fill="none"></path></g></svg>