<svg xmlns="http://www.w3.org/2000/svg" height="1200" width="1600" version="1.1" xmlns:xlink="http://www.w3.org/1999/xlink" xmlns:svgjs="http://svgjs.com/svgjs"><rect fill="#fafafa" width="1600" height="1200"></rect><g><path d="M646.08 991.07C659.04 991.07 669.56 980.55 669.56 967.59 669.56 954.62 659.04 944.1 646.08 944.1 633.11 944.1 622.59 954.62 622.59 967.59 622.59 980.55 633.11 991.07 646.08 991.07Z" stroke="#ffc930" stroke-width="4" stroke-linecap="round" stroke-linejoin="round" opacity="1" fill="none"></path></g><g><path d="M820 910.95C831.01 910.95 839.94 902.02 839.94 891.01 839.94 880 831.01 871.08 820 871.08 808.99 871.08 800.06 880 800.06 891.01 800.06 902.02 808.99 910.95 820 910.95Z" fill="#0e2758" opacity="1" stroke-width="4" stroke="none"></path></g><g><path d="M304 507.33C313.93 507.33 321.98 499.28 321.98 489.35 321.98 479.42 313.93 471.37 304 471.37 294.07 471.37 286.02 479.42 286.02 489.35 286.02 499.28 294.07 507.33 304 507.33Z" stroke="#0e2758" stroke-width="4" stroke-linecap="round" stroke-linejoin="round" opacity="1" fill="none"></path></g><g><path d="M1329.61 362.23C1339.67 362.23 1347.82 354.08 1347.82 344.02 1347.82 333.97 1339.67 325.81 1329.61 325.81 1319.55 325.81 1311.4 333.97 1311.4 344.02 1311.4 354.08 1319.55 362.23 1329.61 362.23Z" stroke="#0e2758" stroke-width="4" stroke-linecap="round" stroke-linejoin="round" opacity="1" fill="none"></path></g><g><path d="M646.08 263.1C659.05 263.1 669.56 252.58 669.56 239.61 669.56 226.64 659.05 216.13 646.08 216.13 633.1 216.13 622.59 226.64 622.59 239.61 622.59 252.58 633.1 263.1 646.08 263.1Z" fill="#ffc930" opacity="1" stroke-width="4" stroke="none"></path></g><g><path d="M1126.56 311.65H530.42C498.49 311.65 472.51 337.51 472.51 369.57V752.42C472.51 784.36 498.36 810.34 530.42 810.34H1126.69C1158.62 810.34 1184.6 784.49 1184.6 752.42V369.57C1184.48 337.51 1158.5 311.65 1126.56 311.65Z" fill="#2c71f6fa" opacity="1" stroke-width="4" stroke="none"></path><path d="M542.59 402.65C554.13 402.65 563.5 393.28 563.5 381.74 563.5 370.19 554.13 360.83 542.59 360.83 531.03 360.83 521.68 370.19 521.68 381.74 521.68 393.28 531.03 402.65 542.59 402.65Z" fill="#f3ebe9" opacity="1" stroke-width="4" stroke="none"></path><path d="M605.07 402.65C616.61 402.65 625.98 393.28 625.98 381.74 625.98 370.19 616.61 360.83 605.07 360.83 593.52 360.83 584.15 370.19 584.15 381.74 584.15 393.28 593.52 402.65 605.07 402.65Z" fill="#f3ebe9" opacity="1" stroke-width="4" stroke="none"></path><path d="M667.54 402.65C679.09 402.65 688.45 393.28 688.45 381.74 688.45 370.19 679.09 360.83 667.54 360.83 656 360.83 646.63 370.19 646.63 381.74 646.63 393.28 656 402.65 667.54 402.65Z" fill="#f3ebe9" opacity="1" stroke-width="4" stroke="none"></path></g><g><path d="M1302.4 575.1H1018.96C999.76 575.1 984.24 590.62 984.24 609.81L984.24 876.11C984.24 895.31 999.76 910.82 1018.96 910.82H1302.4C1321.59 910.82 1337.11 895.31 1337.11 876.11L1337.11 609.81C1337.11 590.62 1321.53 575.1 1302.4 575.1Z" fill="#ffffff" opacity="1" stroke-width="4" stroke="none"></path><path d="M1022.2 636.73C1030.08 636.73 1036.47 630.35 1036.47 622.46 1036.47 614.58 1030.08 608.19 1022.2 608.19 1014.31 608.19 1007.93 614.58 1007.93 622.46 1007.93 630.35 1014.31 636.73 1022.2 636.73Z" fill="#f3ebe9" opacity="1" stroke-width="4" stroke="none"></path><path d="M1063.64 636.73C1071.53 636.73 1077.91 630.35 1077.91 622.46 1077.91 614.58 1071.53 608.19 1063.64 608.19 1055.76 608.19 1049.37 614.58 1049.37 622.46 1049.37 630.35 1055.76 636.73 1063.64 636.73Z" fill="#f3ebe9" opacity="1" stroke-width="4" stroke="none"></path><path d="M1105.15 636.73C1113.03 636.73 1119.42 630.35 1119.42 622.46 1119.42 614.58 1113.03 608.19 1105.15 608.19 1097.26 608.19 1090.88 614.58 1090.88 622.46 1090.88 630.35 1097.26 636.73 1105.15 636.73Z" fill="#f3ebe9" opacity="1" stroke-width="4" stroke="none"></path></g><g><path d="M1198.15 739.04L1130.85 736.96 1130.65 735.82 1130.78 725.49C1129.04 725.96 1126.89 726.29 1124.34 726.29 1116.82 726.29 1105.89 723.61 1099.65 715.49 1091.8 705.29 1093.54 691.53 1096.36 679.52 1097.3 675.63 1097.77 670.47 1098.24 664.83 1099.31 652.48 1100.72 637.12 1107.16 628.53 1117.03 614.91 1131.92 625.71 1153.33 625.71 1154.87 625.71 1158.49 625.58 1160.17 625.71 1184.73 626.99 1204.66 629.13 1203.92 652.82 1203.58 663.49 1202.18 684.89 1200.63 709.79 1200.03 718.24 1199.36 726.96 1198.89 735.62V735.82L1198.15 739.04Z" fill="#b35c42" opacity="1" stroke-width="4" stroke="none"></path><path d="M1130.51 742.66L1130.78 725.76C1130.78 725.69 1130.85 725.55 1130.92 725.55 1132.12 725.22 1141.11 722.4 1150.78 717.03 1150.98 716.9 1151.18 717.17 1151.05 717.37L1130.92 742.8C1130.78 742.93 1130.51 742.87 1130.51 742.66Z" fill="#332e2c" opacity="0.2" stroke-width="4" stroke="none"></path><path d="M1130.78 725.49C1136.28 723.81 1139.64 722.53 1145.74 719.58" stroke="#332e2c" stroke-width="4" stroke-linecap="round" stroke-linejoin="round" opacity="1" fill="none"></path><path d="M1164.13 690L1172.92 686.58" stroke="#332e2c" stroke-width="4" stroke-linecap="round" stroke-linejoin="round" opacity="1" fill="none"></path><path d="M1118.44 677.85C1117.36 680.6 1118.17 682.21 1119.84 683.22" stroke="#332e2c" stroke-width="4" stroke-linecap="round" stroke-linejoin="round" opacity="1" fill="none"></path><path d="M1116.42 693.48C1117.97 694.76 1123.13 694.89 1126.15 691.13" stroke="#332e2c" stroke-width="4" stroke-linecap="round" stroke-linejoin="round" opacity="1" fill="none"></path><path d="M1135.88 675.03C1137.44 675.03 1138.7 673.77 1138.7 672.21 1138.7 670.65 1137.44 669.39 1135.88 669.39 1134.32 669.39 1133.06 670.65 1133.06 672.21 1133.06 673.77 1134.32 675.03 1135.88 675.03Z" fill="#30242a" opacity="1" stroke-width="4" stroke="none"></path><path d="M1107.23 670.33C1108.79 670.33 1110.05 669.07 1110.05 667.51 1110.05 665.96 1108.79 664.7 1107.23 664.7 1105.67 664.7 1104.41 665.96 1104.41 667.51 1104.41 669.07 1105.67 670.33 1107.23 670.33Z" fill="#30242a" opacity="1" stroke-width="4" stroke="none"></path><path d="M1046.24 791.45C1043.42 786.95 1040.47 781.85 1037.38 777.02 1025.44 757.76 1015.1 740.92 1008.46 730.85 998.6 715.89 981.35 693.55 976.72 697.84 970.62 703.55 977.73 719.45 978.4 720.86 973.84 720.25 967.46 720.59 964.04 722.27 962.36 723.07 961.09 724.08 960.35 725.22 956.79 730.52 958.81 735.69 960.08 738.03 960.48 738.77 960.15 739.64 959.41 739.98 957.73 740.79 954.78 742.6 953.71 745.82 952.97 748.03 953.24 750.58 954.44 753.33 954.65 753.8 954.58 754.34 954.31 754.74 952.97 756.69 949.61 762.73 954.91 768.23 955.38 768.77 955.45 769.57 954.98 770.11 954.24 771.05 953.37 772.59 953.3 774.6 953.24 777.15 954.58 779.84 957.33 782.39 961.49 786.35 966.52 788.02 970.68 788.83 975.18 800.17 981.49 814.8 989 829.49 991.42 834.32 993.5 838.35 996.45 843.31 996.52 843.45 996.72 843.45 996.78 843.38L1046.24 791.71C1046.3 791.65 1046.3 791.51 1046.24 791.45Z" fill="#b35c42" opacity="1" stroke-width="4" stroke="none"></path><path d="M1188.82 925.04L1188.55 924.84 1189.76 903.03C1189.76 902.9 1189.69 902.83 1189.56 902.83H1114.07C1114.01 902.83 1113.87 902.76 1113.87 902.7L1103.67 863.51C1103.61 863.31 1103.4 863.31 1103.34 863.44 1099.85 867.74 1080.59 890.35 1058.25 890.35 1027.58 890.35 1005.57 869.42 978.73 808.09 978.67 808.02 978.73 807.88 978.8 807.82L1033.49 770.64C1033.55 770.58 1033.69 770.58 1033.76 770.71L1055.56 805.4C1055.63 805.54 1055.83 805.54 1055.9 805.4 1086.43 746.96 1125.88 744.34 1129.98 744.27 1130.11 744.27 1130.18 744.21 1130.18 744.07L1130.31 735.89C1130.31 735.75 1130.38 735.69 1130.51 735.69H1198.75V736.02C1198.62 738.3 1198.42 741.93 1198.28 744.27 1198.28 744.41 1198.35 744.48 1198.48 744.48 1203.85 745.08 1236.4 749.91 1258.54 780.91 1259.14 781.72 1317.99 860.22 1296.58 907.93 1289.67 922.96 1269.21 931.55 1240.29 931.55 1225.32 931.41 1207.95 929.27 1188.82 925.04Z" fill="#0e2758" opacity="1" stroke-width="4" stroke="none"></path><path d="M1196.14 870.69C1196.14 870.56 1204.86 861.23 1205.26 842.58 1205.33 838.75 1207.41 835.26 1210.7 833.32L1225.79 870.76C1208.42 870.22 1196.14 870.69 1196.14 870.69Z" fill="#000000" opacity="0.2" stroke-width="4" stroke="none"></path><path d="M1083.07 881.29C1089.31 869.88 1089.45 856.4 1089.45 845.33 1089.58 835.33 1089.58 827.48 1093.81 824.19L1094.15 823.85 1103.54 863.11C1097.9 870.15 1090.99 876.59 1083.48 881.63L1083.07 881.29Z" fill="#000000" opacity="0.2" stroke-width="4" stroke="none"></path><path d="M1098.04 839.96L1103.54 863.11" stroke="#000000" stroke-width="4" stroke-linecap="round" stroke-linejoin="round" opacity="1" fill="none"></path><path d="M1064.96 819.56L1055.9 806.07" stroke="#000000" stroke-width="4" stroke-linecap="round" stroke-linejoin="round" opacity="1" fill="none"></path><path d="M1139.91 744.48L1130.24 744.28" stroke="#000000" stroke-width="4" stroke-linecap="round" stroke-linejoin="round" opacity="1" fill="none"></path><path d="M955.92 769.17C964.38 773.06 972.29 775.61 981.28 778.03" stroke="#332e2c" stroke-width="4" stroke-linecap="round" stroke-linejoin="round" opacity="1" fill="none"></path><path d="M954.78 754.07C964.71 758.7 973.77 760.78 984.5 763" stroke="#332e2c" stroke-width="4" stroke-linecap="round" stroke-linejoin="round" opacity="1" fill="none"></path><path d="M960.95 739.44C970.35 744.21 978.73 747.29 989.07 748.9" stroke="#332e2c" stroke-width="4" stroke-linecap="round" stroke-linejoin="round" opacity="1" fill="none"></path><path d="M973.03 728.98L979.61 730.99C980.01 731.06 992.22 734.01 992.69 741.12 992.96 744.14 991.62 747.03 989.13 748.77 989 748.84 989 748.97 989.07 749.11 989.87 749.98 993.23 754.07 991.15 758.3 990.21 760.31 988.4 761.52 987.12 762.12 986.12 762.59 985.24 762.86 984.77 762.93 984.64 762.93 984.57 763.13 984.64 763.26 985.51 764.47 988.73 769.3 987.32 773.6 986.65 775.48 985.04 776.55 983.77 777.15 982.83 777.62 982.02 777.82 981.55 777.96 981.42 778.03 981.35 778.16 981.42 778.29 983.77 781.05 983.83 783.39 983.57 784.8 983.23 786.55 982.02 788.02 980.34 788.83 979.47 789.23 978.6 789.43 977.66 789.43 977.46 789.43 977.19 789.43 976.92 789.43" stroke="#332e2c" stroke-width="4" stroke-linecap="round" stroke-linejoin="round" opacity="1" fill="none"></path><path d="M1102.4 680.46C1110.14 680.46 1116.42 674.19 1116.42 666.44 1116.42 658.7 1110.14 652.42 1102.4 652.42 1094.66 652.42 1088.37 658.7 1088.37 666.44 1088.37 674.19 1094.66 680.46 1102.4 680.46Z" stroke="#231f20" stroke-width="4" stroke-linecap="round" stroke-linejoin="round" opacity="1" fill="none"></path><path d="M1137.76 685.77C1145.5 685.77 1151.78 679.49 1151.78 671.75 1151.78 664 1145.5 657.72 1137.76 657.72 1130.02 657.72 1123.74 664 1123.74 671.75 1123.74 679.49 1130.02 685.77 1137.76 685.77Z" stroke="#231f20" stroke-width="4" stroke-linecap="round" stroke-linejoin="round" opacity="1" fill="none"></path><path d="M1267.6 793.86C1255.92 798.83 1247.74 810.43 1247.74 823.85 1247.74 841.84 1262.36 856.46 1280.35 856.46 1286.05 856.46 1291.35 854.99 1296.05 852.44 1288.93 829.36 1276.25 807.28 1267.6 793.86Z" fill="#2c71f6fa" opacity="1" stroke-width="4" stroke="none"></path><path d="M1196.2 817.22C1214.21 817.22 1228.81 802.62 1228.81 784.61 1228.81 766.59 1214.21 752 1196.2 752 1178.19 752 1163.59 766.59 1163.59 784.61 1163.59 802.62 1178.19 817.22 1196.2 817.22Z" fill="#2c71f6fa" opacity="1" stroke-width="4" stroke="none"></path><path d="M1126.62 774C1126.62 763.33 1121.52 753.87 1113.6 747.9 1100.72 752.73 1082.34 763.87 1065.29 789.5 1070.79 799.7 1081.6 806.61 1094.01 806.61 1112.06 806.68 1126.62 792.05 1126.62 774Z" fill="#2c71f6fa" opacity="1" stroke-width="4" stroke="none"></path><path d="M1025.3 821.98C1011.81 821.98 1000.21 830.16 995.24 841.9 1008.53 865.46 1021.28 879.14 1035.43 885.65 1048.45 881.36 1057.84 869.15 1057.84 854.65 1057.91 836.6 1043.28 821.98 1025.3 821.98Z" fill="#2c71f6fa" opacity="1" stroke-width="4" stroke="none"></path><path d="M1247.74 885.79C1229.75 885.79 1215.13 900.41 1215.13 918.4 1215.13 922.49 1215.86 926.38 1217.27 930.01 1225.46 931.01 1233.18 931.55 1240.29 931.55 1256.39 931.55 1269.88 928.87 1279.88 923.9 1280.21 922.09 1280.35 920.28 1280.35 918.4 1280.41 900.41 1265.79 885.79 1247.74 885.79Z" fill="#2c71f6fa" opacity="1" stroke-width="4" stroke="none"></path><path d="M1257.4 779.77C1247.2 780.37 1236.73 779.77 1226.73 778.09 1164 766.22 1170.24 705.63 1170.44 705.16V705.02L1170.57 704.89C1170.71 704.89 1194.06 690.66 1189.83 677.85 1188.89 674.89 1186.88 672.55 1184.06 671.27 1175.47 667.51 1161.98 672.81 1161.85 672.81L1161.51 672.95V672.61C1159.97 664.16 1161.38 658.05 1164 651.68 1152.86 653.09 1144.94 651.21 1141.79 645.91 1139.44 642.15 1140.04 636.51 1143.53 631.68 1112.73 641.88 1104.75 633.16 1104.48 632.89L1104.68 632.49C1105.49 630.74 1106.36 629.33 1107.3 628.06 1118.1 613.5 1137.16 606.18 1160.98 607.26 1173.19 607.86 1184.26 613.03 1192.45 621.68 1200.43 630.14 1204.72 641.08 1204.39 652.35 1204.05 659.39 1203.65 668.65 1202.91 680.53 1223.11 670.53 1241.9 670.94 1256.19 681 1268.87 689.92 1276.19 706.03 1274.51 721.19 1276.05 721.33 1285.18 722.27 1294.84 727.43 1304.7 732.73 1317.18 743.54 1321.28 765.01 1323.76 778.5 1321.41 792.39 1314.37 804.26 1307.92 815.2 1297.72 823.92 1286.45 827.81 1286.25 827.75 1269.27 795 1257.4 779.77Z" fill="#30242a" opacity="1" stroke-width="4" stroke="none"></path><path d="M1202.91 680.54L1201.71 691.81" stroke="#191416" stroke-width="4" stroke-linecap="round" stroke-linejoin="round" opacity="1" fill="none"></path><path d="M1257.4 779.77C1274.04 779.23 1282.9 770.51 1282.9 770.51" stroke="#191416" stroke-width="4" stroke-linecap="round" stroke-linejoin="round" opacity="1" fill="none"></path><path d="M1274.51 721.19C1274.51 721.19 1273.64 729.04 1271.09 736.89" stroke="#191416" stroke-width="4" stroke-linecap="round" stroke-linejoin="round" opacity="1" fill="none"></path><path d="M1151.78 890.48C1169.79 890.48 1184.39 875.89 1184.39 857.87 1184.39 839.86 1169.79 825.26 1151.78 825.26 1133.77 825.26 1119.17 839.86 1119.17 857.87 1119.17 875.89 1133.77 890.48 1151.78 890.48Z" fill="#2c71f6fa" opacity="1" stroke-width="4" stroke="none"></path><path d="M1104.61 957.32C1103.54 957.18 1102.73 956.51 1102.26 955.57 1100.72 952.01 1104.08 943.69 1110.52 934.5 1110.58 934.43 1110.52 934.37 1110.38 934.37 1109.24 935.11 1108.1 935.78 1106.96 936.65 1099.31 942.15 1089.92 948.73 1082.74 948.73 1079.58 948.73 1077.1 947.45 1075.22 944.97H1075.16C1072.47 944.97 1070.46 944.03 1069.45 942.49 1068.18 940.74 1068.04 938.12 1068.98 935.11V935.04C1067.57 932.56 1067.57 929.74 1068.85 926.11 1074.49 910.01 1103.87 886.53 1118.57 880.89 1138.43 873.24 1170.03 871.5 1193.05 871.16H1193.39L1190.16 925.24 1189.69 925.11C1183.25 923.7 1176.21 922.36 1168.09 920.01 1168.09 920.01 1168.09 920.01 1168.02 920.01 1166.61 920.54 1153.73 927.19 1132.86 930.48H1132.79C1120.92 946.51 1109.38 954.77 1106.63 956.85 1105.95 957.25 1105.95 957.32 1104.61 957.32Z" fill="#b35c42" opacity="1" stroke-width="4" stroke="none"></path><path d="M1193.39 871.23C1204.79 871.23 1223.11 870.7 1237.2 871.64" stroke="#000000" stroke-width="4" stroke-linecap="round" stroke-linejoin="round" opacity="1" fill="none"></path><path d="M1215.46 845.06L1225.79 870.76" stroke="#000000" stroke-width="4" stroke-linecap="round" stroke-linejoin="round" opacity="1" fill="none"></path><path d="M1068.98 935.11C1076.77 926.45 1091.8 910.61 1102.33 903.23" stroke="#332e2c" stroke-width="4" stroke-linecap="round" stroke-linejoin="round" opacity="1" fill="none"></path><path d="M1075.22 944.97C1080.39 939.67 1097.16 923.63 1111.26 913.9" stroke="#332e2c" stroke-width="4" stroke-linecap="round" stroke-linejoin="round" opacity="1" fill="none"></path><path d="M1110.72 934.17L1120.05 924.37" stroke="#332e2c" stroke-width="4" stroke-linecap="round" stroke-linejoin="round" opacity="1" fill="none"></path></g></svg>