<svg xmlns="http://www.w3.org/2000/svg" height="1200" width="1600" version="1.1" xmlns:xlink="http://www.w3.org/1999/xlink" xmlns:svgjs="http://svgjs.com/svgjs"><rect fill="#f3ebe9" width="1600" height="1200"></rect><g><path d="M1167.48 955.23C1200.82 955.23 1227.94 928.11 1227.94 894.78V460.6C1227.94 427.26 1200.82 400.14 1167.48 400.14L431.38 400.14C398.04 400.14 370.92 427.26 370.92 460.6L370.92 894.78C370.92 928.11 398.04 955.23 431.38 955.23H1167.48V955.23Z" fill="#1f5ac7" opacity="1" stroke-width="4" stroke="none"></path><path d="M1090.13 743.13C1114.52 743.13 1134.36 723.29 1134.36 698.9 1134.36 674.51 1114.52 654.66 1090.13 654.66H929.18C904.79 654.66 884.95 674.51 884.95 698.9 884.95 723.29 904.79 743.13 929.18 743.13L1090.13 743.13Z" fill="#acacac" opacity="1" stroke-width="4" stroke="none"></path><path d="M650.46 885.36C689.99 885.36 722.15 853.21 722.15 813.68 722.15 774.15 689.99 742 650.46 742 610.94 742 578.77 774.15 578.77 813.68 578.77 853.21 610.94 885.36 650.46 885.36Z" fill="#ffffff" opacity="1" stroke-width="4" stroke="none"></path><path d="M544.91 885.36C584.44 885.36 616.6 853.21 616.6 813.68 616.6 774.15 584.44 742 544.91 742 505.39 742 473.22 774.15 473.22 813.68 473.22 853.21 505.39 885.36 544.91 885.36Z" fill="#ffffff" opacity="1" stroke-width="4" stroke="none"></path><path d="M1129.31 591.6H1007.04" stroke="#bfbfbf" stroke-width="4" stroke-linecap="round" stroke-linejoin="round" opacity="1" fill="none"></path><path d="M948.65 591.6H826.38" stroke="#bfbfbf" stroke-width="4" stroke-linecap="round" stroke-linejoin="round" opacity="1" fill="none"></path><path d="M596.07 591.6H473.8" stroke="#bfbfbf" stroke-width="4" stroke-linecap="round" stroke-linejoin="round" opacity="1" fill="none"></path><path d="M772.23 591.6H649.96" stroke="#bfbfbf" stroke-width="4" stroke-linecap="round" stroke-linejoin="round" opacity="1" fill="none"></path></g><g><path d="M1006.47 893.7V851.31 808.93H862.01V852.16H717.96V893.7 955.58H1150.53V893.7H1006.47Z" fill="#1bb6bb" opacity="1" stroke-width="4" stroke="none"></path><path d="M1006.47 893.7V955.58" stroke="#000000" stroke-width="4" stroke-linecap="round" stroke-linejoin="round" opacity="1" fill="none"></path><path d="M862.01 852.16V955.58" stroke="#000000" stroke-width="4" stroke-linecap="round" stroke-linejoin="round" opacity="1" fill="none"></path><path d="M1006.47 893.7V955.58L1018.06 893.7H1006.47Z" fill="#000000" opacity="0.3" stroke-width="4" stroke="none"></path><path d="M862.01 852.16V925.48L847.93 852.16H862.01Z" fill="#000000" opacity="0.3" stroke-width="4" stroke="none"></path></g></svg>